<svg xmlns="http://www.w3.org/2000/svg" fill="#93C5FD" viewBox="0 0 458.92 458.92" style="enable-background:new 0 0 458.92 458.92" xml:space="preserve"><path d="M139.425 119.355a5.88 5.88 0 0 0-8.279.965 5.84 5.84 0 0 0 .919 8.208l.041.032a5.88 5.88 0 1 0 7.319-9.205z"/><path d="M453.066 450.92h-10.96V214.08c.221-104.006-83.914-188.498-187.92-188.719a188.338 188.338 0 0 0-47.4 5.959 13.038 13.038 0 0 0-.96-10.08 13.441 13.441 0 0 0-10.08-6.36 20.004 20.004 0 0 0-12.32 2.68c0-9.72-6.48-17.56-14.4-17.56s-14.36 8-14.4 17.56a20.004 20.004 0 0 0-12.32-2.68 13.44 13.44 0 0 0-10.12 6.36 13.36 13.36 0 0 0-.44 12 20.004 20.004 0 0 0 8.48 9.32 20.32 20.32 0 0 0-8.48 9.36 13.362 13.362 0 0 0 .44 12 12.645 12.645 0 0 0 3.28 3.56A190.086 190.086 0 0 0 106.706 96c-.347.454-.605.97-.76 1.52a12 12 0 0 0-8.48 11.2 3.989 3.989 0 0 0-1.04 1.08c-2.36 3.48-4.52 7.12-6.64 10.76a17.32 17.32 0 0 0-20-.88c0-9.72-6.48-17.6-14.4-17.6s-14.4 8-14.44 17.6c-8.4-4.84-18.44-3.16-22.4 3.68-3.96 6.84-.36 16.36 8 21.24-8.56 4.88-12.16 14.4-8.2 21.28 4 6.84 14 8.48 22.4 3.68 0 9.72 6.52 17.56 14.44 17.56a14.88 14.88 0 0 0 13.48-11.72 194.59 194.59 0 0 0-3 19.16v.2c-.431.5-.819 1.035-1.16 1.6a13.361 13.361 0 0 0-.48 12 20.004 20.004 0 0 0 8.48 9.32 20 20 0 0 0-8.48 9.36 13.522 13.522 0 0 0 .44 12l.2.24v211.56h-52a4 4 0 0 0 0 8h129.64a4 4 0 0 0 0-8h-44V259.76c.941.243 1.909.364 2.88.36 8 0 14.36-8 14.4-17.56a20.005 20.005 0 0 0 12.32 2.64c7.008-.489 12.293-6.566 11.804-13.574a12.722 12.722 0 0 0-1.244-4.666 19.995 19.995 0 0 0-8.48-9.36 20.004 20.004 0 0 0 8.48-9.32c3.067-6.345.41-13.974-5.934-17.042a12.76 12.76 0 0 0-4.626-1.238 20.005 20.005 0 0 0-12.32 2.64 17.04 17.04 0 0 0-11.68-17.2c2.256-8.232 5.2-16.26 8.8-24a20.274 20.274 0 0 0 8.76-2.52c0 9.68 6.48 17.56 14.4 17.56s14.4-8 14.44-17.56c8.4 4.8 18.44 3.16 22.4-3.68a13.36 13.36 0 0 0 .44-12 19.998 19.998 0 0 0-8.44-9.36c8.36-4.88 12-14.4 8-21.24a15.08 15.08 0 0 0-17.72-5.4 149.903 149.903 0 0 1 16.68-12c.292-.212.548-.468.76-.76a12.832 12.832 0 0 0 5.64-3.48 3.675 3.675 0 0 0 1.6-.44c3.4-1.88 6.92-3.52 10.44-5.12.559 115.208 75.633 216.8 185.6 251.16a279.145 279.145 0 0 0-28 124.32h-134.24a4 4 0 0 0 0 8h239.6a4 4 0 0 0 0-8zm-327.6-364.04a20.004 20.004 0 0 0-4 12 20.345 20.345 0 0 0-5.2-2.04c2.84-3.36 5.92-6.72 9.2-9.96zm-60.28 67.36a4 4 0 0 0-5.08-1 3.999 3.999 0 0 0-1.76 4.92 37.713 37.713 0 0 1 3.12 11.32c0 5.24-2.96 9.64-6.4 9.64s-6.44-4.4-6.44-9.64a37.735 37.735 0 0 1 3.24-11.4 4 4 0 0 0-1.64-4.84 4 4 0 0 0-5.08.96 37.507 37.507 0 0 1-8.32 8.48c-4.52 2.6-9.8 2.28-11.56-.72s.64-7.84 5.16-10.48a39.239 39.239 0 0 1 11.48-2.92 4 4 0 0 0 0-8 37.116 37.116 0 0 1-11.48-2.96c-4.52-2.6-6.88-7.36-5.16-10.36 1.72-3 7.04-3.36 11.56-.72a37.507 37.507 0 0 1 8.32 8.48 4 4 0 0 0 6.84-3.96 37.735 37.735 0 0 1-3.24-11.4c0-5.24 2.96-9.68 6.44-9.68 3.48 0 6.28 4.56 6.28 9.8a38.041 38.041 0 0 1-3.24 11.4 4 4 0 0 0 6.88 4 36.012 36.012 0 0 1 8.36-8.52c4.52-2.6 9.84-2.28 11.56.72 1.72 3-.64 7.76-5.16 10.36a37.116 37.116 0 0 1-11.48 2.96 4 4 0 0 0-3.4 4 4 4 0 0 0 3.4 4 39.239 39.239 0 0 1 11.48 2.92c4.52 2.64 6.88 7.4 5.16 10.4s-7.04 3.32-11.56.72a36.963 36.963 0 0 1-8.28-8.48zm25.24 296.44h-17.76V244.72a19.32 19.32 0 0 0 14.24-2.16 19.72 19.72 0 0 0 3.52 11.36v196.76zm17.28-257.92a37.86 37.86 0 0 1-3.2 11.4 3.999 3.999 0 0 0 6.84 4 36.822 36.822 0 0 1 8.28-8.48 11.998 11.998 0 0 1 7.4-1.72 5.601 5.601 0 0 1 4 2.44 5.401 5.401 0 0 1 0 4.8 12.001 12.001 0 0 1-5.16 5.56 37.358 37.358 0 0 1-11.48 2.92 4 4 0 0 0 0 8 37.883 37.883 0 0 1 11.48 2.92 12.006 12.006 0 0 1 5.16 5.56 5.48 5.48 0 0 1 0 4.84 5.64 5.64 0 0 1-4 2.4 12.358 12.358 0 0 1-7.4-1.68 38.798 38.798 0 0 1-8.28-8.52 4 4 0 0 0-6.84 4 37.278 37.278 0 0 1 3.2 11.44c0 5.2-2.92 9.64-6.4 9.64-3.48 0-6.4-4.44-6.4-9.64a37.278 37.278 0 0 1 3.2-11.44 4 4 0 0 0-1.72-4.88 4.004 4.004 0 0 0-2-.56 4.001 4.001 0 0 0-3.12 1.48 37.718 37.718 0 0 1-8.28 8.52c-4.52 2.6-9.84 2.28-11.56-.72a5.48 5.48 0 0 1 0-4.84 12.006 12.006 0 0 1 5.16-5.56 37.883 37.883 0 0 1 11.48-2.92 4 4 0 0 0 0-8 37.358 37.358 0 0 1-11.48-2.92 12.001 12.001 0 0 1-5.16-5.56 5.401 5.401 0 0 1 0-4.8 5.601 5.601 0 0 1 4-2.44c2.588-.243 5.185.36 7.4 1.72a36.822 36.822 0 0 1 8.28 8.48 3.999 3.999 0 0 0 6.839-4 37.475 37.475 0 0 1-3.2-11.4 9.76 9.76 0 0 1 5.12-9.48c.398-.06.802-.06 1.2 0 3.721-.24 6.641 4.2 6.641 9.44zm-12.28-16.08a18.119 18.119 0 0 0-8.52 16 20.005 20.005 0 0 0-12.32-2.64h-.32a179.355 179.355 0 0 1 3.2-17.88 14.32 14.32 0 0 0 14.36-6.28c4-6.88.36-16.4-8-21.28a18.36 18.36 0 0 0 9.64-14.88 2.36 2.36 0 0 0 .52-.72c2.08-3.76 4.28-7.32 6.52-10.92l.04.16a20.72 20.72 0 0 0 6.44 5.88 20 20 0 0 0-8.48 9.12 13.362 13.362 0 0 0 .44 12 12.24 12.24 0 0 0 5.72 5 159.37 159.37 0 0 0-9.24 26.44zm70.4-69.8c1.76 3-.64 7.76-5.16 10.36a37.789 37.789 0 0 1-11.48 2.92 4 4 0 0 0 0 8 37.789 37.789 0 0 1 11.48 2.92 12.002 12.002 0 0 1 4.8 5.32 5.601 5.601 0 0 1 0 4.84c-1.76 3-7.04 3.32-11.56.72a38.365 38.365 0 0 1-8.32-8.52 3.999 3.999 0 0 0-6.839 4 38.112 38.112 0 0 1 3.24 11.44c0 5.24-2.96 9.64-6.44 9.64s-6.08-4.44-6.08-9.68a38.688 38.688 0 0 1 3.2-11.44 4 4 0 0 0-1.72-4.88 4 4 0 0 0-5.12.92 38.83 38.83 0 0 1-8.36 8.52c-4.52 2.6-9.84 2.28-11.56-.72a5.643 5.643 0 0 1 0-4.84 12.278 12.278 0 0 1 5.16-5.56 37.789 37.789 0 0 1 11.48-2.92 4 4 0 0 0 0-8 37.801 37.801 0 0 1-11.52-2.68 12.278 12.278 0 0 1-5.16-5.56 5.562 5.562 0 0 1 0-4.96l.04.16c1.72-3.04 7.04-3.36 11.56-.72a36.963 36.963 0 0 1 8.28 8.48 4 4 0 0 0 5.12.96 4 4 0 0 0 1.72-4.92 38.919 38.919 0 0 1-3.2-11.4c0-5.24 2.96-9.68 6.4-9.68s6.16 4 6.4 9.04a3.751 3.751 0 0 0 0 2 51.97 51.97 0 0 1-3.08 10.04 4 4 0 0 0 6.84 3.96 36.459 36.459 0 0 1 8.32-8.48c4.519-2.64 9.799-2.28 11.559.72zm-17-15.12a14.6 14.6 0 0 0-13.08-10.32 12.562 12.562 0 0 0-8 2.92A185.068 185.068 0 0 1 144.626 70a20.403 20.403 0 0 0 10-2.76 18.561 18.561 0 0 0 6.84 14.88 154.878 154.878 0 0 0-12.64 9.64zm34.4-22.2c.108-.769.175-1.544.2-2.32a25.44 25.44 0 0 0 2.36 1.12l-2.56 1.2zm3.8-9.24a36.963 36.963 0 0 1-8.28-8.48 4 4 0 0 0-6.839 4 36.877 36.877 0 0 1 3.2 11.4c0 5.24-2.92 9.64-6.4 9.64s-6.4-4.4-6.4-9.64a36.877 36.877 0 0 1 3.2-11.4 4 4 0 0 0-6.84-3.96 37.918 37.918 0 0 1-8.28 8.48 12.358 12.358 0 0 1-7.4 1.68 4.84 4.84 0 0 1-4-7.239l.16-.08a12.001 12.001 0 0 1 5.16-5.48 38.735 38.735 0 0 1 11.48-2.92 4 4 0 0 0 0-8 36.68 36.68 0 0 1-11.48-2.96 11.759 11.759 0 0 1-5.16-5.52 5.52 5.52 0 0 1 0-4.84 5.4 5.4 0 0 1 4-2.4 12 12 0 0 1 7.4 1.68 37.918 37.918 0 0 1 8.28 8.48 4 4 0 0 0 6.84-4 37.86 37.86 0 0 1-3.2-11.4c0-5.24 2.92-9.64 6.4-9.64 3.48 0 6.4 4.4 6.4 9.64a36.877 36.877 0 0 1-3.2 11.4 3.999 3.999 0 0 0 6.84 4 37.918 37.918 0 0 1 8.28-8.48 12 12 0 0 1 7.4-1.68 5.4 5.4 0 0 1 4 2.4 5.52 5.52 0 0 1 0 4.84 12.001 12.001 0 0 1-5.16 5.52 37.116 37.116 0 0 1-11.48 2.96 4 4 0 0 0 0 8 39.239 39.239 0 0 1 11.48 2.92 11.996 11.996 0 0 1 5.16 5.52 5.48 5.48 0 0 1 0 4.84c-1.721 2.999-7.041 3.319-11.561.719zm11.04 12.36a4.194 4.194 0 0 0 0-.76 158.394 158.394 0 0 1 19-5.96v22.32a4 4 0 0 0 4 4h.84a155.549 155.549 0 0 1 55.44-1.44h.6c.213.023.427.023.64 0h.48a2.96 2.96 0 0 0 .96-.44l.36-.24c.266-.2.496-.443.68-.72l.32-.4c.141-.28.248-.575.32-.88.01-.16.01-.32 0-.48l2.12-22.64a157.361 157.361 0 0 1 17.64 4.2l-1.36 24v.28c-.019.24-.019.48 0 .72a4.646 4.646 0 0 0 0 .8c.091.195.198.382.32.56a3 3 0 0 0 .56.68c.131.154.295.277.48.36.259.205.541.38.84.52a155.996 155.996 0 0 1 46.28 25.12 4 4 0 0 0 2.44.84c.423.08.857.08 1.28 0a4.002 4.002 0 0 0 2.6-2.76l4.36-16a155.1 155.1 0 0 1 12.92 13.72c-.111.26-.205.527-.28.8a267.202 267.202 0 0 0 36 177v9.36l-28 14.36c-108.529-33.065-182.468-133.468-181.84-246.92zm26.92 10.76V64.2a154.603 154.603 0 0 1 28.48-2.64c7.55-.001 15.09.547 22.56 1.64l-1.76 19.08a164.019 164.019 0 0 0-49.28 1.16zm83.24 7.08 1.24-18.56a155.256 155.256 0 0 1 43.76 25.96l-4 14.28a163.767 163.767 0 0 0-41-21.68zm100.08 360.16h-52.68a276.245 276.245 0 0 1 28.92-124.32l23.76-12.24v136.56zm0-171.44a259.361 259.361 0 0 1-28.96-152.8 154.084 154.084 0 0 1 28.96 90.04v62.76zm25.8 171.44h-17.8V310l17.8-9.12v149.8zm0-236.6v77.8l-17.8 9.12v-84.52c.131-89.846-72.597-162.786-162.442-162.917a162.742 162.742 0 0 0-33.118 3.357 4.197 4.197 0 0 0-1.44.32c-4 .92-8.2 1.96-12.24 3.16.68-2.927.414-5.994-.76-8.76a20.32 20.32 0 0 0-8.48-9.36 21.603 21.603 0 0 0 3.64-2.64 3.998 3.998 0 0 0 3.16.44c96.095-26.974 195.862 29.06 222.835 125.155a180.756 180.756 0 0 1 6.725 48.845h-.08z"/><circle cx="55.166" cy="144.64" r="5.854"/><path d="M104.968 213.017a5.88 5.88 0 1 0-7.32 9.206 5.88 5.88 0 0 0 7.32-9.206zM172.785 37.715a5.88 5.88 0 1 0-7.319 9.205 5.88 5.88 0 0 0 7.319-9.205zM394.146 299.44a199.04 199.04 0 0 1-70.28-152 4 4 0 0 0-8 0 206.96 206.96 0 0 0 73.08 158.08 4 4 0 1 0 5.2-6.08zM375.786 300.64a198.563 198.563 0 0 1-72.4-80.24 4 4 0 1 0-7.16 3.561 206.245 206.245 0 0 0 75.28 83.44 3.999 3.999 0 1 0 4.28-6.761zM124.226 253.76a4.001 4.001 0 0 0-3.08 0 4.001 4.001 0 0 0-2.28 2.12 38.12 38.12 0 0 0-.84 28.92 37.996 37.996 0 0 0 19.64 21.28 4.001 4.001 0 0 0 3.08 0 4.243 4.243 0 0 0 2.28-2.12c8.427-19.062.075-41.363-18.8-50.2zm12.96 42.92a30.281 30.281 0 0 1-11.72-14.68 30.28 30.28 0 0 1-.76-18.72 30.28 30.28 0 0 1 12.48 33.4zM57.746 211.44a3.995 3.995 0 0 0-1.52-.84c0-.24.2-.4.28-.64a4 4 0 0 0-.6-3.04c-11.353-17.383-34.494-22.547-52.16-11.64a3.997 3.997 0 0 0-1.8 2.56 4.003 4.003 0 0 0 .56 3.04 38.238 38.238 0 0 0 23.84 16.36c2.253.463 4.541.73 6.84.8a39.282 39.282 0 0 0-4.52 4 38.197 38.197 0 0 0-10.44 27.2 4 4 0 0 0 4 4c20.812-.823 37.146-18.135 36.76-38.96a4.001 4.001 0 0 0-1.24-2.84zm-46-11.48a30.362 30.362 0 0 1 18.8-1.84v-.04a30.117 30.117 0 0 1 16 9.48 30.2 30.2 0 0 1-34.8-7.6zm31.16 35.64v-.04a30.16 30.16 0 0 1-16.44 8.96 30.28 30.28 0 0 1 24.48-25.92 30.444 30.444 0 0 1-8.04 17zM108.186 58.92a4 4 0 0 0-4.831-2.943l-.089.023a38.283 38.283 0 0 0-23.08 17.44c0 .32-.32.68-.52 1l-2.8-11.16c0-.2-.2-.36-.28-.56 9.502-17.887 3.374-40.082-13.96-50.56a4 4 0 0 0-3.04-.48 3.997 3.997 0 0 0-2.48 1.88c-10.197 17.512-4.928 39.941 12 51.08a1.81 1.81 0 0 0 0 .64l1.44 5.64a38.24 38.24 0 0 0-37.72-12 4 4 0 0 0-2.943 4.831l.023.089a38.04 38.04 0 0 0 17.44 23.28 38.08 38.08 0 0 0 19.52 5.4 39.29 39.29 0 0 0 8-.92c-.13 3.524.22 7.05 1.04 10.48a3.999 3.999 0 0 0 1.84 2.48 4.001 4.001 0 0 0 3.08.44c20.144-5.35 32.305-25.833 27.36-46.08zm-56.64 21.44a29.558 29.558 0 0 1-12.36-14.08 30.08 30.08 0 0 1 18.28 4 29.885 29.885 0 0 1 12.32 14.08 29.961 29.961 0 0 1-18.24-4zm19.32-24.28a30.199 30.199 0 0 1-10-15.84 29.838 29.838 0 0 1 1.24-18.68 30.24 30.24 0 0 1 8.76 34.52zm12.08 39.8a30.277 30.277 0 0 1 4.12-18.32 29.961 29.961 0 0 1 14.08-12.32 30.32 30.32 0 0 1-18.2 30.64zM295.026 427.72h-58.68a4 4 0 0 0 0 8h58.68a4 4 0 0 0 0-8z"/></svg>