<svg fill="#93C5FD" xmlns="http://www.w3.org/2000/svg" viewBox="0 0 64 64" width="64" height="64"><g data-name="20-cake"><path d="M63.126 58.893A2.935 2.935 0 0 0 61 58h-2.009L59 44.021V43a5.006 5.006 0 0 0-5-5h-1.009L53 25.462V25a5.006 5.006 0 0 0-5-5h-9.182a21.474 21.474 0 0 0 4.759-6.379 11.288 11.288 0 0 0 .965-8.673A6.706 6.706 0 0 0 42.06 1.38 7 7 0 0 0 37.88 0a6.824 6.824 0 0 0-4.409 1.53A8.457 8.457 0 0 0 32 3.136a7.055 7.055 0 0 0-10.051-1.763 6.719 6.719 0 0 0-2.491 3.573A11.474 11.474 0 0 0 19 8.12a12.221 12.221 0 0 0 1.424 5.5A21.454 21.454 0 0 0 25.182 20H16a4.995 4.995 0 0 0-5 5v13h-1a4.995 4.995 0 0 0-5 5v15H3a3 3 0 0 0-3 3 2.924 2.924 0 0 0 .874 2.107A2.935 2.935 0 0 0 3 64h58a3 3 0 0 0 3-3 2.924 2.924 0 0 0-.874-2.107ZM22.217 12.738A10.305 10.305 0 0 1 21 8.12a9.522 9.522 0 0 1 .382-2.629 4.732 4.732 0 0 1 1.758-2.512A5 5 0 0 1 26.12 2c2.168 0 3.754 1.118 4.991 3.518a1.041 1.041 0 0 0 1.778 0 7.635 7.635 0 0 1 1.85-2.441A4.8 4.8 0 0 1 37.88 2a5 5 0 0 1 2.989.986 4.723 4.723 0 0 1 1.749 2.5 9.332 9.332 0 0 1-.833 7.245A20.558 20.558 0 0 1 35.77 20h-7.54a20.548 20.548 0 0 1-6.013-7.262Zm-8.345 10.144A3.018 3.018 0 0 1 16 22h32a3 3 0 0 1 3 3v.046l-2.212 2.212a2.581 2.581 0 0 1-3.58 0 4.526 4.526 0 0 0-6.42 0 2.581 2.581 0 0 1-3.58 0 4.526 4.526 0 0 0-6.42 0 2.581 2.581 0 0 1-3.58 0 4.525 4.525 0 0 0-6.417 0 2.577 2.577 0 0 1-3.584 0L13 25.046V25a3.01 3.01 0 0 1 .872-2.118ZM13 27.874l.791.791a4.521 4.521 0 0 0 6.417 0 2.617 2.617 0 0 1 3.58-.005 4.526 4.526 0 0 0 6.42.005 2.617 2.617 0 0 1 3.58-.005 4.526 4.526 0 0 0 6.42.005 2.617 2.617 0 0 1 3.58-.005 4.524 4.524 0 0 0 6.419.005l.793-.789L50.991 38H49v-5a1 1 0 0 0-2 0v5H13ZM7.872 40.882A3.018 3.018 0 0 1 10 40h44a3 3 0 0 1 3 3v.575l-2.3 2.208a2.814 2.814 0 0 1-3.806 0 4.744 4.744 0 0 0-6.594 0 2.814 2.814 0 0 1-3.806 0 4.744 4.744 0 0 0-6.594 0 2.814 2.814 0 0 1-3.806 0 4.744 4.744 0 0 0-6.594 0 2.814 2.814 0 0 1-3.806 0 4.744 4.744 0 0 0-6.592 0 2.733 2.733 0 0 1-3.812 0L7 43.575V43a3.01 3.01 0 0 1 .872-2.118ZM7 46.348l.905.871a4.724 4.724 0 0 0 6.592 0 2.814 2.814 0 0 1 3.806 0 4.744 4.744 0 0 0 6.594 0 2.814 2.814 0 0 1 3.806 0 4.744 4.744 0 0 0 6.594 0 2.814 2.814 0 0 1 3.806 0 4.744 4.744 0 0 0 6.594 0 2.814 2.814 0 0 1 3.806 0 4.744 4.744 0 0 0 6.59 0l.9-.871L56.991 58H55v-6a1 1 0 0 0-2 0v6H7ZM61 62H3a.978.978 0 0 1-.712-.306A.957.957 0 0 1 2 61a1 1 0 0 1 1-1h58a.978.978 0 0 1 .712.306A.957.957 0 0 1 62 61a1 1 0 0 1-1 1Z"/><path d="M40.98 9.2a1 1 0 0 0-1.96-.4 13.648 13.648 0 0 1-4.62 7.4 1 1 0 1 0 1.2 1.6 15.456 15.456 0 0 0 5.38-8.6Z"/></g></svg>