<svg height="64" fill="#93C5FD" viewBox="0 0 512.002 512.002" width="64" xmlns="http://www.w3.org/2000/svg"><path d="M500.107 463.552a7.5 7.5 0 0 0-9.613-4.483l-.03.011c-25.179 9.15-53.113-3.885-62.278-29.065l-33.233-91.308c28.376-14.292 42.257-47.963 31.129-78.539l-57.575-158.187a7.499 7.499 0 0 0-9.613-4.482l-102.893 37.45L153.108 97.5a7.5 7.5 0 0 0-9.613 4.482L85.92 260.168c-11.128 30.575 2.753 64.247 31.129 78.539l-33.233 91.308c-9.165 25.179-37.098 38.212-62.278 29.065l-.029-.011a7.5 7.5 0 1 0-5.13 14.096l.044.016 105.413 38.367a7.486 7.486 0 0 0 2.564.454 7.5 7.5 0 0 0 2.565-14.55c-12.202-4.441-21.943-13.368-27.431-25.136s-6.064-24.969-1.623-37.171l33.23-91.298a63.217 63.217 0 0 0 14.594 1.726c9.163 0 18.294-2.006 26.846-5.994 15.399-7.181 27.081-19.929 32.893-35.896l1.833-5.037c1.417-3.892-.59-8.196-4.483-9.613s-8.197.591-9.613 4.483l-1.833 5.036c-4.441 12.202-13.368 21.944-25.136 27.432s-24.968 6.064-37.171 1.623c-25.188-9.168-38.223-37.119-29.055-62.308l11.815-32.462c1.199.488 2.326 1.08 3.582 1.742 4.121 2.171 9.248 4.873 18.71 4.873 9.465 0 14.594-2.701 18.716-4.872 3.466-1.825 5.97-3.144 11.727-3.144 5.761 0 8.266 1.319 11.734 3.145 4.123 2.17 9.254 4.871 18.721 4.871 9.468 0 14.599-2.701 18.722-4.872.389-.205.765-.402 1.136-.593l-10.745 29.523a7.5 7.5 0 0 0 14.096 5.131l37.773-103.781 50.527 138.823c5.812 15.967 17.493 28.715 32.893 35.896 8.552 3.988 17.682 5.994 26.846 5.994 4.883 0 9.774-.583 14.594-1.726l33.23 91.298c4.441 12.202 3.865 25.403-1.623 37.171s-15.229 20.695-27.431 25.136a7.5 7.5 0 0 0 5.129 14.096l105.413-38.367.044-.016a7.501 7.501 0 0 0 4.482-9.613zM60.07 473.104a64.991 64.991 0 0 0 4.949-2.064 63.838 63.838 0 0 0 15.574-10.242 63.841 63.841 0 0 0 5.347 17.857 64.83 64.83 0 0 0 2.464 4.762zm146.684-251.797c-3.468 1.826-5.974 3.145-11.734 3.145s-8.266-1.319-11.734-3.145c-4.123-2.17-9.254-4.872-18.722-4.872-9.465 0-14.594 2.701-18.716 4.872-3.466 1.825-5.97 3.144-11.727 3.144-5.752 0-8.254-1.319-11.718-3.143-1.563-.823-3.327-1.748-5.442-2.57l7.466-20.512c2.584.668 5.744 1.145 9.694 1.145 9.465 0 14.594-2.701 18.716-4.872 3.466-1.825 5.97-3.144 11.727-3.144 5.761 0 8.266 1.319 11.734 3.145 4.123 2.17 9.254 4.871 18.721 4.871 9.468 0 14.599-2.701 18.722-4.872 3.468-1.825 5.974-3.145 11.734-3.145 1.921 0 3.47.153 4.774.399l-9.059 24.889c-6.816.666-10.984 2.848-14.436 4.665zm28.662-43.749c-2.673-.714-5.894-1.203-9.941-1.203-9.467 0-14.598 2.701-18.721 4.871-3.468 1.826-5.974 3.145-11.734 3.145s-8.266-1.319-11.734-3.145c-4.123-2.17-9.254-4.872-18.722-4.872-9.465 0-14.594 2.701-18.716 4.872-3.466 1.825-5.97 3.144-11.727 3.144-1.792 0-3.261-.139-4.519-.363l25.423-69.848 91.363 33.253zm121.561-63.398 25.422 69.845c-1.277.228-2.771.365-4.599.365-5.776 0-8.288-1.32-11.765-3.147-4.128-2.169-9.265-4.869-18.743-4.869-9.468 0-14.6 2.701-18.723 4.871-3.469 1.826-5.975 3.145-11.736 3.145-5.759 0-8.264-1.319-11.731-3.145-4.123-2.17-9.253-4.872-18.72-4.872-3.611 0-6.786.373-9.805 1.171l-10.96-30.113zM345.76 325.984c-11.769-5.488-20.695-15.23-25.136-27.432l-23.465-64.47.953.498c3.604 1.897 8.09 4.259 15.594 4.769a7.501 7.501 0 0 0 1.017-14.965c-4.34-.295-6.556-1.462-9.623-3.076-3.426-1.803-7.556-3.968-14.282-4.65l-9.071-24.921c1.272-.232 2.77-.382 4.633-.382 5.759 0 8.265 1.319 11.732 3.145 4.123 2.17 9.253 4.872 18.72 4.872 9.468 0 14.6-2.701 18.723-4.871 3.469-1.826 5.975-3.145 11.737-3.145 5.777 0 8.289 1.32 11.766 3.147 4.128 2.169 9.265 4.869 18.743 4.869 3.92 0 7.1-.466 9.769-1.161l7.469 20.52c-2.127.823-3.902 1.75-5.472 2.575-3.477 1.827-5.989 3.147-11.766 3.147s-8.288-1.32-11.765-3.147c-4.128-2.169-9.265-4.869-18.743-4.869a7.5 7.5 0 0 0 0 15c5.776 0 8.289 1.32 11.766 3.147 4.128 2.169 9.265 4.869 18.743 4.869s14.615-2.7 18.743-4.869c1.271-.668 2.41-1.266 3.625-1.757l11.819 32.473c9.168 25.189-3.866 53.14-29.055 62.308-12.205 4.439-25.406 3.863-37.174-1.624zm77.838 157.433a64.442 64.442 0 0 0 2.464-4.762 63.841 63.841 0 0 0 5.347-17.857 63.838 63.838 0 0 0 15.574 10.242c1.63.76 3.281 1.448 4.949 2.064z"/><path d="M252.398 102.256a7.493 7.493 0 0 0 7.206 0c2.123-1.163 51.994-28.914 51.994-67.272C311.598 15.694 295.904 0 276.614 0c-7.445 0-14.654 2.434-20.613 6.838C250.042 2.434 242.833 0 235.388 0c-19.29 0-34.984 15.694-34.984 34.984 0 38.357 49.871 66.109 51.994 67.272zM235.388 15c5.753 0 11.068 2.456 14.966 6.915a7.5 7.5 0 0 0 11.292 0c3.898-4.459 9.213-6.915 14.966-6.915 11.019 0 19.984 8.965 19.984 19.984 0 14.914-11.618 28.61-21.365 37.473-7.414 6.742-14.938 11.807-19.232 14.49-4.294-2.684-11.818-7.748-19.232-14.49-9.747-8.863-21.365-22.558-21.365-37.473C215.404 23.965 224.369 15 235.388 15zM172.324 57.613a7.5 7.5 0 0 0-9 12l32.064 24.049a7.464 7.464 0 0 0 4.494 1.5 7.5 7.5 0 0 0 4.506-13.5zM339.678 57.613l-32.064 24.049a7.5 7.5 0 1 0 9 12l32.064-24.049a7.5 7.5 0 1 0-9-12zM170.537 36.852c1.464 1.465 3.384 2.197 5.303 2.197s3.839-.732 5.303-2.197a7.5 7.5 0 0 0 0-10.606l-8.016-8.016a7.5 7.5 0 0 0-10.606 0 7.5 7.5 0 0 0 0 10.606zM336.162 39.048a7.474 7.474 0 0 0 5.303-2.197l8.016-8.016c2.929-2.929 2.929-7.677 0-10.606s-7.678-2.929-10.606 0l-8.016 8.016a7.5 7.5 0 0 0 0 10.606 7.474 7.474 0 0 0 5.303 2.197z"/></svg>