<?xml version="1.0" encoding="UTF-8"?>
<svg id="svg2793" xmlns="http://www.w3.org/2000/svg" version="1.1" xmlns:svg="http://www.w3.org/2000/svg" xmlns:xlink="http://www.w3.org/1999/xlink" viewBox="0 0 682.7 578">
  <!-- Generator: Adobe Illustrator 29.7.1, SVG Export Plug-In . SVG Version: 2.1.1 Build 8)  -->
  <defs>
    <style>
      .st0 {
        stroke: #93c5fd;
        stroke-linecap: round;
        stroke-linejoin: round;
        stroke-width: 20px;
      }

      .st0, .st1 {
        fill: none;
      }

      .st2 {
        clip-path: url(#clippath);
      }
    </style>
    <clipPath id="clippath">
      <rect class="st1" x="0" y="-53" width="682.7" height="682.7"/>
    </clipPath>
  </defs>
  <g id="g2799">
    <g id="g2801">
      <g class="st2">
        <g id="g2803">
          <g id="g2809">
            <path id="path2811" class="st0" d="M194.4,416.7c-14.9-25.7-23.5-55.5-23.5-87.3,0-57.7,28.1-108.8,71.4-140.5"/>
          </g>
          <g id="g2813">
            <path id="path2815" class="st0" d="M445.6,187.7c44.2,31.5,73.1,83.3,73.1,141.7,0,96-77.9,173.9-173.9,173.9s-83.3-16-113.8-42.4"/>
          </g>
          <g id="g2817">
            <path id="path2819" class="st0" d="M49.1,169.4l1-127.7"/>
          </g>
          <g id="g2821">
            <path id="path2823" class="st0" d="M90.3,194.6V41.7"/>
          </g>
          <g id="g2825">
            <path id="path2827" class="st0" d="M10,41.7v153"/>
          </g>
          <g id="g2829">
            <path id="path2831" class="st0" d="M50.2,234.8c22.2,0,40.2-18,40.2-40.2v-23.3H10v23.3c0,22.2,18,40.2,40.2,40.2Z"/>
          </g>
          <g id="g2833">
            <path id="path2835" class="st0" d="M50.2,234.8v278.6"/>
          </g>
          <g id="g2837">
            <path id="path2839" class="st0" d="M672.7,273.9V41.7c-40.2,21.5-65.4,63.5-65.4,109.2v90.3c0,18.1,14.6,32.7,32.7,32.7h32.7Z"/>
          </g>
          <g id="g2841">
            <path id="path2843" class="st0" d="M672.7,199.9v313.5"/>
          </g>
          <g id="g2845">
            <path id="path2847" class="st0" d="M443.9,115.2c80.6,37.5,136.4,119.2,136.4,214s-105.5,235.8-235.6,235.8-235.6-105.6-235.6-235.8,54.6-174.6,133.6-212.7"/>
          </g>
          <g id="g2849">
            <path id="path2851" class="st0" d="M444.1,39.3V11.7h-198.8v408h125.1l73.7-73.8V92"/>
          </g>
          <g id="g2853">
            <path id="path2855" class="st0" d="M370.5,419.7v-73.8h73.7"/>
          </g>
          <g id="g2857">
            <path id="path2859" class="st0" d="M368.4,67.8c-10.9,0-20.3,7.2-24.5,17.6-4.2-10.4-13.5-17.6-24.5-17.6s-26.7,13.2-26.7,29.5c0,37.3,51.2,57.9,51.2,57.9,0,0,50.7-20.9,51.2-57.9.2-16.3-12-29.5-26.7-29.5Z"/>
          </g>
          <g id="g2861">
            <path id="path2863" class="st0" d="M299.4,223h90.7"/>
          </g>
          <g id="g2865">
            <path id="path2867" class="st0" d="M299.4,275h90.7"/>
          </g>
        </g>
      </g>
    </g>
  </g>
</svg>