<svg fill="#93C5FD" height="64" viewBox="0 0 500 500" width="64" xmlns="http://www.w3.org/2000/svg"><path d="M480.35 137.155c-6.926-7.717-17.437-10.471-29.133-7.715a6.325 6.325 0 0 0-5.846-1.717c-7.025 1.817-5.9 10.534-.417 13.591a9.383 9.383 0 0 0 7.414.9c21.767-6.182 26.381 13.96 19.8 25.694a3.792 3.792 0 0 0-.186.365c-.472.977-11.934 23.653-54.114 18.842a93.718 93.718 0 0 1-8.948-15.409c-3.653-7.517-14.725-2.555-11.537 5.178a96.191 96.191 0 0 0 5.063 9.7l-9.322 7.71c-5.693 4.491-4.755 13.951 1.671 17.28l-48.922 48.046-.013-.206a6.253 6.253 0 0 0 1.207-2.132l28.879-89.153c2.395.844 5.818 2.5 8.386 2.351a11.924 11.924 0 0 0 11.85-11.675l.26-17.916c56.792-7.257 68.452-43.141 69.5-46.8.925-2.837 8.778-29.115-11.622-45.153-10.41-8.185-24.39-9.171-38.646-2.82-15.027-33.11-51.458-28.042-65.734-3.935-9.68-18.212-35.166-22.886-49.288-2.475-9.984-5.926-20.523-6.526-29.33-1.557-17.8 10.046-14.965 31.275-14.56 33.791.421 3.224 5.242 31.277 46.052 43.558l-1.662 12c-1.136 7.1 5.883 13.434 12.816 11.614l5.231 25.151a83.853 83.853 0 0 0-59.878-25.19H152.385a84.2 84.2 0 0 0-83.834 78.575l-5.271 81.4a67.623 67.623 0 0 0-29.871 55.895v24.435a17.438 17.438 0 0 0-13.036 16.841v17.307A17.442 17.442 0 0 0 37.8 430.949h26.531v31.412A23 23 0 0 0 87.3 485.332h21.75a23 23 0 0 0 22.97-22.971v-10.543a6.323 6.323 0 1 0-12.646 0v10.543a10.337 10.337 0 0 1-10.324 10.325H87.3a10.337 10.337 0 0 1-10.324-10.325v-31.412H140.1a16.056 16.056 0 0 0 14.316 8.831h102.873a16.056 16.056 0 0 0 14.316-8.831h8.081v31.412a23 23 0 0 0 22.971 22.971H324.4a23 23 0 0 0 22.971-22.971v-10.543a6.324 6.324 0 1 0-12.647 0v10.543a10.336 10.336 0 0 1-10.324 10.325h-21.743a10.336 10.336 0 0 1-10.324-10.325v-31.412h81.573a17.442 17.442 0 0 0 17.424-17.423v-17.307a17.437 17.437 0 0 0-13.036-16.84v-24.436a67.645 67.645 0 0 0-29.862-55.894l-1.477-22.764 59.111-58.052 1.839 1.087c5.958 3.764 14.5-.1 15.621-7.048l2.26-11.893c38.742 2.279 56.665-22.777 57.561-26.554 1.186-2.25 10.66-21.46-2.997-36.67zm-114.134 13.787 10.075-11.8a10.4 10.4 0 0 0 7.488 2.829l-.225 15.509zm-8.563-96.564c.071-.142.137-.285.2-.432.079-.192 7.879-18.652 24.916-18.652 12.3-.327 19.653 11.19 22.153 17.812a10.425 10.425 0 0 0 14.207 5.358c47.646-22.774 60.333 66.137-34.838 70.827-23.465-21.706-31.42-48.814-29.594-61.691a49.21 49.21 0 0 0 .285-3 35.222 35.222 0 0 1 2.671-10.222zm-88.345 16c-.142-.956-2.621-14.942 8.226-21.213 6.015-3.758 14.435-.519 18.687 2.732a9.415 9.415 0 0 0 13.412-2.837c11.944-19.354 29.072-7.5 32.069 5.95a26.244 26.244 0 0 1 .7 8.534q-.15 1.269-.255 2.631c-1.286 9.668-7.094 24.391-27.6 39.29-37.903-7.322-45.708-32.818-45.239-35.089zm45.878 47.953a9.317 9.317 0 0 0 3.983-.844l4.162 6.723-9.229 1.949zm13.789 17.612c6.955-1.309 10.6-9.838 6.735-15.761l-6.368-10.289a85.275 85.275 0 0 0 15.923-17.722c3.476 11.261 10.174 24.106 22.234 37.8L355.855 143.6c-5.323 5.975-2.711 16.112 4.836 18.774l3.41 1.287-20.372 62.892-.577-8.9c-.01-.1-.017-.2-.028-.308a83.42 83.42 0 0 0-4.561-22.072L326.338 136.5zm-176.59 15.777h106.933a71.574 71.574 0 0 1 67.019 46.87l4.222 20.3 4.756 73.325a67.274 67.274 0 0 0-24.262-4.523h-15.871a28.142 28.142 0 0 0-13.734-11.29c-30.607-12.311-61.2-17.407-93.22-14.432a205.866 205.866 0 0 0-57.959 14.43 28.141 28.141 0 0 0-13.747 11.292H100.65a67.308 67.308 0 0 0-24.25 4.517l4.775-73.742a71.529 71.529 0 0 1 71.21-66.747zm110.947 219.436a15.953 15.953 0 0 0-6.043-1.19h-28.08v-94.619a196.008 196.008 0 0 1 47.5 12.779c5.283 2.136 8.727 6.04 8.989 10.186 1.07 17.111-.572 48.588-22.366 72.844zm-114.961 0c-21.807-24.266-23.436-55.737-22.351-72.853.255-4.142 3.7-8.042 8.989-10.179a196.024 196.024 0 0 1 47.5-12.778v94.619h-28.091a15.954 15.954 0 0 0-6.047 1.192zm46.779-97.035a172.266 172.266 0 0 1 21.412 0v95.843H195.15zM46.056 354.943a54.579 54.579 0 0 1 54.594-54.6h12.6c-.828 19.439 1.937 52.23 24.978 78.459h-16.889c5.343-21.139-11.542-42.622-33.395-42.328C66.1 336.174 49.2 357.66 54.55 378.8h-8.494zm20.193 15.868a21.721 21.721 0 0 1 21.7-21.7c28.781 1.192 28.773 42.2 0 43.391a21.72 21.72 0 0 1-21.7-21.691zM37.8 418.3a4.783 4.783 0 0 1-4.777-4.777v-17.304a4.781 4.781 0 0 1 4.777-4.775h22.712c13.337 18.176 41.535 18.168 54.865 0h22.989V418.3zm219.493 8.83H154.418a3.409 3.409 0 0 1-3.405-3.4v-37.713a3.41 3.41 0 0 1 3.405-3.4h102.871a3.41 3.41 0 0 1 3.405 3.4v37.711a3.409 3.409 0 0 1-3.405 3.405zm121.394-13.607a4.783 4.783 0 0 1-4.777 4.777H273.34v-26.856h23.166c13.338 17.876 41.182 17.869 54.512 0h22.888a4.781 4.781 0 0 1 4.777 4.775zm-54.921-21.245a21.719 21.719 0 0 1-21.695-21.695c1.192-28.783 42.2-28.774 43.39 0a21.719 21.719 0 0 1-21.699 21.698zm41.885-37.338v23.86H357.1c5.508-21.183-11.4-42.856-33.342-42.553-21.938-.3-38.855 21.372-33.342 42.553h-16.944c23.029-26.218 25.805-59.014 24.987-78.459h12.594c29.447-.471 55.21 25.114 54.594 54.602zm37.922-152.874 6.085-5.033a9.423 9.423 0 0 0 3.5 2.064l-1.475 7.761z"/><path d="M102.479 273.761a6.325 6.325 0 0 0 6.77-5.843l3.263-44.378c4.359-20.937 29.251-36.682 58.1-36.682H241.1c28.858 0 53.745 15.743 58.094 36.681l3.269 44.38a6.323 6.323 0 1 0 12.612-.929l-3.3-44.777a6.377 6.377 0 0 0-.1-.752c-5.367-27.378-35.049-47.249-70.576-47.249h-70.483c-35.522 0-65.208 19.87-70.586 47.247a6.427 6.427 0 0 0-.1.755l-3.291 44.777a6.323 6.323 0 0 0 5.84 6.77z"/></svg>