<svg fill="#93C5FD" height="64" viewBox="0 0 512.113 512.113" width="64" xmlns="http://www.w3.org/2000/svg"><path d="M349.36 189.745c-33.794 0-65.932 10.206-93.306 29.558C151.903 143.909-.028 221.317 1.202 350.876.06 480.151 151.348 557.99 256.11 482.485c54.601 39.616 133.849 39.148 188.058-1.109a7.501 7.501 0 0 0 1.684-10.472 7.502 7.502 0 0 0-10.473-1.683c-134.472 94.517-299.457-67.824-205.438-203.178a109.22 109.22 0 0 1 16.818 16.46c-55.318 80.061 6.029 191.96 102.601 191.432 68.07.001 123.45-55.205 123.45-123.062 1.23-94.562-107.399-155.333-187.503-105.164a162.315 162.315 0 0 0-16.8-16.763c146.33-91.717 303.4 92.349 188.099 221.573a7.5 7.5 0 0 0 10.952 10.251c96.225-101.216 21.495-272-118.198-271.025zM187.715 350.873c0 33.883 10.292 65.955 29.833 93.275-70.412 42.437-164.225-11.019-163.154-93.277-1.171-82.332 93.121-135.696 163.153-93.273-19.54 27.322-29.832 59.393-29.832 93.275zm68.395-55.087c19.937 32.114 20.275 77.567-.005 110.167-20.19-32.937-20.188-77.233.005-110.167zm9.337 123.439c55.271-80.048-5.907-191.968-102.604-191.414-68.069-.001-123.449 55.205-123.449 123.062-1.23 94.565 107.413 155.346 187.508 105.144a162.417 162.417 0 0 0 16.798 16.786c-94.742 64.491-229.051-7.139-227.498-121.932-.002-80.573 65.783-146.126 146.642-146.126 117.727-1.052 188.806 136.072 119.429 230.939a108.725 108.725 0 0 1-16.826-16.459zm192.364-68.352c1.068 82.256-92.75 135.719-163.147 93.272 39.867-53.257 39.063-134.171-.056-186.51 70.408-42.516 164.276 10.974 163.203 93.238z"/><path d="M209.725 147.225c20.864 19.283 41.407 32.783 42.271 33.349 2.737 1.631 5.474 1.631 8.211 0 25.713-16.079 88.597-68.413 85.965-104.907-.258-48.87-64.374-66.663-90.071-25.908-11.68-19.6-39.397-28.676-60.895-18.663a7.499 7.499 0 0 0-3.855 9.881 7.498 7.498 0 0 0 9.881 3.856c21.579-9.964 47.866 7.034 47.369 30.835a7.5 7.5 0 0 0 15 0c1.69-44.61 65.885-44.605 67.572 0 0 31.338-50.807 72.861-75.074 89.591-26.627-19.686-88.435-65.413-72.074-103.45a7.5 7.5 0 0 0-13.659-6.201c-13.099 31.586 5.166 58.881 39.359 91.617zM128.116 14.001l15.704 9.043c3.417 1.969 8.272.664 10.241-2.757a7.5 7.5 0 0 0-2.757-10.242L135.6 1.002a7.5 7.5 0 0 0-7.484 12.999zM112.638 86.543h18.134c9.931-.344 9.923-14.659 0-15h-18.134c-9.931.344-9.924 14.66 0 15zM143.82 135.043l-15.704 9.043a7.5 7.5 0 0 0-2.757 10.242c1.97 3.421 6.823 4.725 10.241 2.757l15.704-9.043a7.5 7.5 0 1 0-7.484-12.999zM360.899 148.042l15.704 9.043c3.417 1.969 8.272.664 10.241-2.757a7.5 7.5 0 0 0-2.757-10.242l-15.704-9.043a7.499 7.499 0 0 0-10.241 2.757 7.499 7.499 0 0 0 2.757 10.242zM373.932 79.044a7.5 7.5 0 0 0 7.5 7.5h18.134c9.931-.344 9.923-14.659 0-15h-18.134a7.5 7.5 0 0 0-7.5 7.5zM368.383 23.044l15.704-9.043a7.5 7.5 0 1 0-7.484-12.999l-15.704 9.043c-3.59 2.067-4.684 6.575-2.757 10.242 2.126 4.048 6.46 4.548 10.241 2.757z"/></svg>