<svg xmlns="http://www.w3.org/2000/svg" version="1.1" xmlns:xlink="http://www.w3.org/1999/xlink" xmlns:svgjs="http://svgjs.dev/svgjs" width="613.07" height="403.79"><svg id="SvgjsSvg1001" data-name="Layer 1" xmlns="http://www.w3.org/2000/svg" viewBox="0 0 613.07 403.79">
  <path d="M486.66,38.98c.56,1,1.07,2,1.54,3,.46,1,.7,2.08.7,3.25,0,8.5-2.1,17.03-6.3,25.61-4.2,8.58-9.99,17.2-17.36,25.86-7.38,8.66-16.01,17.37-25.9,26.11-9.9,8.75-20.58,17.62-32.06,26.61-11.48,9-23.43,18.08-35.84,27.24-12.42,9.16-24.69,18.41-36.82,27.74-.19,3-.33,5.96-.42,8.87-.1,2.92-.14,5.71-.14,8.37,0,10.16,1.35,20.58,4.06,31.23,2.7,10.66,6.2,21.24,10.5,31.73,13.44-12.49,25.38-24.57,35.84-36.23,10.45-11.66,19.32-22.03,26.6-31.11,7.28-9.08,12.88-16.32,16.8-21.74,3.92-5.41,6.06-8.12,6.44-8.12.74,0,1.58,1.37,2.52,4.12.93,2.75,1.82,6.33,2.66,10.75.84,4.42,1.68,9.33,2.52,14.74.84,5.42,1.58,10.79,2.24,16.12.65,5.33,1.16,10.33,1.54,14.99.37,4.67.56,8.33.56,10.99v3.5c-.38,3.33-2.57,7.46-6.58,12.37-4.02,4.92-9.29,10.41-15.82,16.49-6.54,6.08-14.19,12.54-22.96,19.36-8.78,6.83-18.2,13.66-28.28,20.49,5.04,8.5,10.12,16.41,15.26,23.74,5.13,7.33,9.89,13.87,14.28,19.62,4.38,5.75,8.3,10.58,11.76,14.49,3.45,3.91,6.02,6.62,7.7,8.12-4.11.5-10.04.87-17.78,1.12-7.75.25-15.87.38-24.36.38s-16.71-.09-24.64-.25c-7.94-.17-14.14-.42-18.62-.75-.94-1.33-3.36-4.71-7.28-10.12-3.92-5.42-8.31-12.45-13.16-21.11-9.71,5.33-19.28,10.25-28.7,14.74-9.43,4.5-18.39,8.41-26.88,11.74-8.5,3.33-16.48,5.95-23.94,7.87-7.47,1.91-14.1,2.87-19.88,2.87-3.74,0-7.84-1.12-12.32-3.37-4.48-2.25-8.96-5.12-13.44-8.62-4.48-3.5-8.82-7.41-13.02-11.74-4.2-4.33-7.94-8.66-11.2-12.99-3.26-4.33-5.88-8.41-7.84-12.24-1.96-3.83-2.94-6.91-2.94-9.25,0-15.82,3.78-31.02,11.34-45.6,7.56-14.57,17.59-28.65,30.1-42.23,12.5-13.58,26.83-26.74,42.98-39.48,16.14-12.74,32.8-25.19,49.98-37.36,3.36-16.66,7.79-32.73,13.3-48.22,5.5-15.49,11.8-29.94,18.9-43.35,7.09-13.41,14.93-25.61,23.52-36.61,8.58-10.99,17.68-20.4,27.3-28.24,9.61-7.83,19.6-13.87,29.96-18.12,10.36-4.25,20.95-6.37,31.78-6.37,4.85,0,9.8,1.37,14.84,4.12s9.89,6.12,14.56,10.12c4.66,4,8.91,8.25,12.74,12.74,3.82,4.5,7.04,8.5,9.66,11.99ZM297.11,326.33c-4.11-10.99-7.47-22.7-10.08-35.11-2.62-12.41-3.92-25.53-3.92-39.35v-4.5c-9.34,8.66-17.92,17.41-25.76,26.24-7.84,8.83-14.66,17.87-20.44,27.11-5.79,9.25-10.27,18.62-13.44,28.11-3.18,9.5-4.76,19.16-4.76,28.99,0,.83.32,1.71.98,2.62.65.92,1.72,1.38,3.22,1.38,2.42,0,6.06-.75,10.92-2.25,4.85-1.5,10.54-3.75,17.08-6.75,6.53-3,13.72-6.7,21.56-11.12,7.84-4.41,16.05-9.53,24.64-15.37ZM440.74,27.74c-11.58,0-22.22,3.25-31.92,9.74-9.71,6.5-18.53,15.04-26.46,25.61-7.94,10.58-14.94,22.74-21,36.48-6.07,13.74-11.16,27.86-15.26,42.35,13.44-9.5,26.08-18.87,37.94-28.11,11.85-9.24,22.26-18.49,31.22-27.73s16-18.45,21.14-27.61c5.13-9.16,7.7-18.4,7.7-27.74,0-2-1.12-3-3.36-3Z" fill="#99c2e8"></path>
  <path d="M284.51,102.68c0,12-2.11,24.45-6.33,37.34-4.22,12.89-10.76,25.45-19.61,37.69-8.85,12.24-20.16,23.89-33.92,34.96-13.77,11.06-30.19,20.72-49.28,28.95,4.74,11.65,9.63,22.77,14.66,33.37,5.03,10.59,10,20.57,14.92,29.92,4.92,9.36,9.6,18.01,14.06,25.95,4.45,7.94,8.47,15.03,12.06,21.27-3.12,1.06-6.83,2.29-11.11,3.71-4.28,1.41-8.68,2.85-13.19,4.33-4.51,1.47-8.94,2.88-13.27,4.24-4.34,1.35-8.13,2.44-11.37,3.27-.93-2.59-2.26-6.65-3.99-12.18-1.73-5.53-3.7-12.15-5.9-19.86-2.2-7.71-4.57-16.36-7.11-25.95-2.55-9.59-5.06-19.71-7.55-30.37-2.49-10.65-4.86-21.65-7.11-33.01-2.26-11.36-4.25-22.69-5.99-33.98,14.69-5.18,27.85-11,39.48-17.48,11.63-6.47,21.83-13.33,30.63-20.57,8.79-7.24,16.25-14.68,22.39-22.33,6.13-7.65,11.13-15.18,15.01-22.6,3.87-7.41,6.71-14.56,8.5-21.45,1.79-6.89,2.69-13.21,2.69-18.98,0-2.23-.17-4.21-.52-5.91-.35-1.7-1.04-3.09-2.08-4.15-1.04-1.06-2.52-1.73-4.42-2.03-1.91-.29-4.42-.2-7.55.27-5.44,1.18-11.43,3.35-17.96,6.53-6.54,3.18-13.42,7.15-20.65,11.92-7.23,4.77-14.75,10.27-22.56,16.51-7.81,6.24-15.7,12.95-23.69,20.13-4.28,13.65-9.2,28.1-14.75,43.34-5.55,15.24-11.57,30.43-18.05,45.55-6.48,15.12-13.27,29.81-20.39,44.05-7.11,14.24-14.35,27.28-21.69,39.1-7.35,11.83-14.69,22.07-22.04,30.72-7.35,8.65-14.43,14.86-21.26,18.63-1.73.94-3.85,1.82-6.33,2.65-2.49.82-5.58,1.41-9.28,1.77-1.39.12-3.04-.47-4.95-1.77-1.91-1.3-3.84-2.94-5.81-4.94-1.97-2-3.93-4.24-5.9-6.71-1.97-2.47-3.79-4.83-5.47-7.06-1.68-2.24-3.06-4.24-4.16-6-1.1-1.77-1.82-2.94-2.17-3.53-.92-1.77-1.42-3.86-1.48-6.27-.06-2.41.2-4.79.78-7.15,2.32-7.88,5.55-16.53,9.72-25.95,4.16-9.42,9.05-19.27,14.66-29.57,5.61-10.3,11.86-20.89,18.74-31.78,6.88-10.89,14.29-21.71,22.21-32.48,7.92-10.77,16.25-21.39,24.99-31.87,8.73-10.47,17.73-20.48,26.98-30.01,5.9-18.71,10.76-36.43,14.58-53.14,3.82-16.71,6.07-31.25,6.77-43.61,4.63,1.88,9.02,4.3,13.19,7.24,4.16,2.94,7.92,6,11.28,9.18,3.35,3.18,6.3,6.36,8.85,9.53,2.54,3.18,4.57,6,6.07,8.47-.23,2-.52,4.03-.87,6.09-.35,2.06-.81,4.27-1.39,6.62,11.68-7.65,23.17-13.62,34.45-17.92,11.28-4.29,22.24-6.44,32.88-6.44,2.54,0,5.32.74,8.33,2.21,3.01,1.47,5.99,3.41,8.94,5.83,2.95,2.41,5.81,5.18,8.59,8.3,2.78,3.12,5.23,6.3,7.37,9.53,2.14,3.24,3.88,6.42,5.21,9.53,1.33,3.12,2.05,5.91,2.17,8.39ZM28.9,321.77c2.66,0,6.25-3,10.76-9,4.51-6,9.57-14.18,15.18-24.54,5.61-10.36,11.54-22.42,17.79-36.19,6.25-13.77,12.43-28.36,18.57-43.78-9.14,11.06-17.61,22.01-25.42,32.84-7.81,10.83-14.58,21.1-20.3,30.81-5.73,9.71-10.21,18.66-13.45,26.83-3.24,8.18-4.86,15.15-4.86,20.92,0,1.41.58,2.12,1.74,2.12Z" fill="#29292d"></path>
  <path d="M609.26,74.08c2.54,3.88,3.82,9.89,3.82,18.01,0,7.65-1.1,16.15-3.3,25.51-2.2,9.36-5.27,19.27-9.2,29.75-3.93,10.48-8.62,21.39-14.06,32.75-5.44,11.36-11.45,22.75-18.05,34.16,5.55,8.47,9.6,18.07,12.15,28.78,2.54,10.71,3.82,21.89,3.82,33.54,0,2.71-.06,5.03-.17,6.97-.12,1.94-.17,3.5-.17,4.68-3.36,2.24-7.29,4.53-11.8,6.89-3.82,2-8.42,4.3-13.79,6.88-5.38,2.59-11.43,5.18-18.13,7.77,1.74-3.65,3.35-7.86,4.86-12.62,1.5-4.77,2.8-9.86,3.9-15.27,1.1-5.41,1.97-11,2.6-16.77.63-5.76.95-11.47.95-17.12,0-1.29-.03-2.53-.09-3.71-.06-1.17-.15-2.41-.26-3.71-7.41,11.65-15.16,23.01-23.25,34.07-8.1,11.06-16.28,21.51-24.55,31.34-8.27,9.83-16.54,18.86-24.81,27.1-8.27,8.24-16.28,15.33-24.03,21.27-7.75,5.94-15.16,10.56-22.21,13.86-7.06,3.29-13.48,4.94-19.26,4.94-1.97,0-4.14-.79-6.51-2.38s-4.77-3.59-7.2-6c-2.43-2.41-4.8-5.12-7.12-8.12-2.31-3-4.42-5.89-6.33-8.65-1.91-2.77-3.53-5.27-4.86-7.5-1.33-2.24-2.17-3.88-2.52-4.94-.35-.94-.84-2.65-1.48-5.12-.63-2.47-.95-5.24-.95-8.3,0-10.12,1.65-20.62,4.95-31.51,3.3-10.88,7.87-21.51,13.71-31.87,5.84-10.36,12.75-20.18,20.74-29.48,7.98-9.3,16.66-17.45,26.03-24.45,9.37-7,19.2-12.53,29.5-16.59,10.29-4.06,20.71-6.09,31.23-6.09,12.49,0,23.54,2,33.14,6,6.36-11.18,12.29-22.3,17.79-33.37,5.49-11.06,10.21-21.77,14.14-32.13,3.93-10.35,7.03-20.21,9.28-29.57,2.26-9.36,3.38-17.86,3.38-25.51,0-5.53-.87-9.56-2.6-12.09-1.74-2.53-5.27-3.8-10.58-3.8-3.7,0-8.33.65-13.88,1.94-5.55,1.3-11.43,3.12-17.61,5.47-6.19,2.36-12.41,5.27-18.65,8.74-6.25,3.47-11.86,7.42-16.83,11.83-4.98,4.41-9.02,9.24-12.15,14.48-3.12,5.24-4.68,10.86-4.68,16.86,0,3.18.58,6.83,1.74,10.95,1.15,4.12,3.18,8.53,6.07,13.24,2.89,4.71,6.85,9.62,11.89,14.74,5.03,5.12,11.48,10.21,19.35,15.27-5.9,1.18-11.54,2.18-16.92,3-5.38.82-10.27,1.53-14.66,2.12-4.4.59-8.16,1.06-11.28,1.41-3.12.35-5.38.59-6.77.71-2.32-1.41-5.09-3.62-8.33-6.62-3.24-3-6.39-6.77-9.46-11.3-3.07-4.53-5.67-9.8-7.81-15.8-2.14-6-3.21-12.71-3.21-20.12,0-11.42,2.31-21.54,6.94-30.37,4.63-8.83,10.58-16.48,17.87-22.95,7.29-6.47,15.47-11.92,24.55-16.33,9.08-4.41,18.07-7.97,26.98-10.68,8.91-2.71,17.24-4.65,24.99-5.83,7.75-1.18,14-1.77,18.74-1.77,3.35,0,6.71.88,10.06,2.65,3.35,1.77,6.56,4.03,9.63,6.8,3.06,2.77,5.96,5.86,8.68,9.27,2.72,3.42,5.15,6.74,7.29,9.97,2.14,3.24,3.96,6.18,5.47,8.83,1.5,2.65,2.6,4.62,3.3,5.91ZM405.19,334.83c4.05,0,8.88-1.62,14.49-4.85,5.61-3.24,11.71-7.77,18.31-13.59,6.59-5.83,13.59-12.74,21-20.74,7.4-8,14.92-16.8,22.56-26.39,7.64-9.59,15.21-19.77,22.73-30.54,7.52-10.77,14.81-21.8,21.86-33.1-.58-.12-1.45-.18-2.6-.18-9.26,0-18.63,2.09-28.11,6.27-9.49,4.18-18.68,9.65-27.59,16.42-8.91,6.77-17.27,14.51-25.08,23.21-7.81,8.71-14.64,17.63-20.48,26.75-5.84,9.12-10.44,18.07-13.79,26.83-3.35,8.77-5.03,16.56-5.03,23.39,0,1.77.12,3.29.35,4.59.23,1.29.69,1.94,1.39,1.94Z" fill="#29292d"></path>
</svg><style>@media (prefers-color-scheme: light) { :root { filter: none; } }
@media (prefers-color-scheme: dark) { :root { filter: none; } }
</style></svg>